<svg width="288" height="288" viewBox="0 0 288 288" fill="none" xmlns="http://www.w3.org/2000/svg">
<path d="M88.8697 97H83.2333C82.9 95.3788 82.3166 93.9545 81.4833 92.7273C80.6651 91.5 79.6651 90.4697 78.4833 89.6364C77.3166 88.7879 76.0212 88.1515 74.5969 87.7273C73.1727 87.303 71.6878 87.0909 70.1424 87.0909C67.3242 87.0909 64.7712 87.803 62.4833 89.2273C60.2106 90.6515 58.4 92.75 57.0515 95.5227C55.7181 98.2955 55.0515 101.697 55.0515 105.727C55.0515 109.758 55.7181 113.159 57.0515 115.932C58.4 118.705 60.2106 120.803 62.4833 122.227C64.7712 123.652 67.3242 124.364 70.1424 124.364C71.6878 124.364 73.1727 124.152 74.5969 123.727C76.0212 123.303 77.3166 122.674 78.4833 121.841C79.6651 120.992 80.6651 119.955 81.4833 118.727C82.3166 117.485 82.9 116.061 83.2333 114.455H88.8697C88.4454 116.833 87.6727 118.962 86.5515 120.841C85.4303 122.72 84.0363 124.318 82.3697 125.636C80.703 126.939 78.8318 127.932 76.756 128.614C74.6954 129.295 72.4909 129.636 70.1424 129.636C66.1727 129.636 62.6424 128.667 59.5515 126.727C56.4606 124.788 54.0287 122.03 52.256 118.455C50.4833 114.879 49.5969 110.636 49.5969 105.727C49.5969 100.818 50.4833 96.5758 52.256 93C54.0287 89.4242 56.4606 86.6667 59.5515 84.7273C62.6424 82.7879 66.1727 81.8182 70.1424 81.8182C72.4909 81.8182 74.6954 82.1591 76.756 82.8409C78.8318 83.5227 80.703 84.5227 82.3697 85.8409C84.0363 87.1439 85.4303 88.7348 86.5515 90.6136C87.6727 92.4773 88.4454 94.6061 88.8697 97ZM98.454 82.4545V129H93.0903V82.4545H98.454ZM104.118 129V94.0909H109.481V129H104.118ZM106.845 88.2727C105.8 88.2727 104.898 87.9167 104.141 87.2045C103.398 86.4924 103.027 85.6364 103.027 84.6364C103.027 83.6364 103.398 82.7803 104.141 82.0682C104.898 81.3561 105.8 81 106.845 81C107.891 81 108.785 81.3561 109.527 82.0682C110.285 82.7803 110.663 83.6364 110.663 84.6364C110.663 85.6364 110.285 86.4924 109.527 87.2045C108.785 87.9167 107.891 88.2727 106.845 88.2727ZM129.327 129.727C126.054 129.727 123.236 128.955 120.873 127.409C118.509 125.864 116.691 123.735 115.418 121.023C114.145 118.311 113.509 115.212 113.509 111.727C113.509 108.182 114.16 105.053 115.464 102.341C116.782 99.6136 118.615 97.4848 120.964 95.9545C123.327 94.4091 126.085 93.6364 129.236 93.6364C131.691 93.6364 133.903 94.0909 135.873 95C137.842 95.9091 139.456 97.1818 140.714 98.8182C141.971 100.455 142.751 102.364 143.054 104.545H137.691C137.282 102.955 136.373 101.545 134.964 100.318C133.57 99.0758 131.691 98.4545 129.327 98.4545C127.236 98.4545 125.403 99 123.827 100.091C122.267 101.167 121.047 102.689 120.168 104.659C119.304 106.614 118.873 108.909 118.873 111.545C118.873 114.242 119.297 116.591 120.145 118.591C121.009 120.591 122.221 122.144 123.782 123.25C125.357 124.356 127.206 124.909 129.327 124.909C130.721 124.909 131.986 124.667 133.123 124.182C134.259 123.697 135.221 123 136.009 122.091C136.797 121.182 137.357 120.091 137.691 118.818H143.054C142.751 120.879 142.001 122.735 140.804 124.386C139.623 126.023 138.054 127.326 136.1 128.295C134.16 129.25 131.903 129.727 129.327 129.727ZM151.735 116.273L151.644 109.636H152.735L168.008 94.0909H174.644L158.372 110.545H157.917L151.735 116.273ZM146.735 129V82.4545H152.099V129H146.735ZM168.917 129L155.281 111.727L159.099 108L175.735 129H168.917ZM206.41 94.0909V98.6364H188.319V94.0909H206.41ZM193.591 85.7273H198.955V119C198.955 120.515 199.175 121.652 199.614 122.409C200.069 123.152 200.645 123.652 201.341 123.909C202.054 124.152 202.804 124.273 203.591 124.273C204.182 124.273 204.667 124.242 205.046 124.182C205.425 124.106 205.728 124.045 205.955 124L207.046 128.818C206.682 128.955 206.175 129.091 205.523 129.227C204.872 129.379 204.046 129.455 203.046 129.455C201.531 129.455 200.046 129.129 198.591 128.477C197.152 127.826 195.955 126.833 195.001 125.5C194.061 124.167 193.591 122.485 193.591 120.455V85.7273ZM224.125 129.727C220.973 129.727 218.208 128.977 215.829 127.477C213.466 125.977 211.617 123.879 210.284 121.182C208.966 118.485 208.306 115.333 208.306 111.727C208.306 108.091 208.966 104.917 210.284 102.205C211.617 99.4924 213.466 97.3864 215.829 95.8864C218.208 94.3864 220.973 93.6364 224.125 93.6364C227.276 93.6364 230.034 94.3864 232.397 95.8864C234.776 97.3864 236.625 99.4924 237.943 102.205C239.276 104.917 239.943 108.091 239.943 111.727C239.943 115.333 239.276 118.485 237.943 121.182C236.625 123.879 234.776 125.977 232.397 127.477C230.034 128.977 227.276 129.727 224.125 129.727ZM224.125 124.909C226.519 124.909 228.488 124.295 230.034 123.068C231.579 121.841 232.723 120.227 233.466 118.227C234.208 116.227 234.579 114.061 234.579 111.727C234.579 109.394 234.208 107.22 233.466 105.205C232.723 103.189 231.579 101.561 230.034 100.318C228.488 99.0758 226.519 98.4545 224.125 98.4545C221.731 98.4545 219.761 99.0758 218.216 100.318C216.67 101.561 215.526 103.189 214.784 105.205C214.041 107.22 213.67 109.394 213.67 111.727C213.67 114.061 214.041 116.227 214.784 118.227C215.526 120.227 216.67 121.841 218.216 123.068C219.761 124.295 221.731 124.909 224.125 124.909ZM64.9005 206.727C61.5368 206.727 58.6353 205.985 56.1959 204.5C53.7717 203 51.9005 200.909 50.5823 198.227C49.2792 195.53 48.6277 192.394 48.6277 188.818C48.6277 185.242 49.2792 182.091 50.5823 179.364C51.9005 176.621 53.7338 174.485 56.0823 172.955C58.4459 171.409 61.2035 170.636 64.355 170.636C66.1732 170.636 67.9686 170.939 69.7414 171.545C71.5141 172.152 73.1277 173.136 74.5823 174.5C76.0368 175.848 77.1959 177.636 78.0595 179.864C78.9232 182.091 79.355 184.833 79.355 188.091V190.364H52.4459V185.727H73.9005C73.9005 183.758 73.5065 182 72.7186 180.455C71.9459 178.909 70.8398 177.689 69.4005 176.795C67.9762 175.902 66.2944 175.455 64.355 175.455C62.2186 175.455 60.3701 175.985 58.8095 177.045C57.2641 178.091 56.0747 179.455 55.2414 181.136C54.408 182.818 53.9914 184.621 53.9914 186.545V189.636C53.9914 192.273 54.4459 194.508 55.355 196.341C56.2792 198.159 57.5595 199.545 59.1959 200.5C60.8323 201.439 62.7338 201.909 64.9005 201.909C66.3095 201.909 67.5823 201.712 68.7186 201.318C69.8701 200.909 70.8626 200.303 71.6959 199.5C72.5292 198.682 73.1732 197.667 73.6277 196.455L78.8095 197.909C78.2641 199.667 77.3474 201.212 76.0595 202.545C74.7717 203.864 73.1808 204.894 71.2868 205.636C69.3929 206.364 67.2641 206.727 64.9005 206.727ZM86.4166 171.091L94.7802 185.364L103.144 171.091H109.326L98.053 188.545L109.326 206H103.144L94.7802 192.455L86.4166 206H80.2348L91.3257 188.545L80.2348 171.091H86.4166ZM112.819 219.091V171.091H118.001V176.636H118.637C119.031 176.03 119.577 175.258 120.274 174.318C120.986 173.364 122.001 172.515 123.319 171.773C124.652 171.015 126.455 170.636 128.728 170.636C131.668 170.636 134.258 171.371 136.501 172.841C138.743 174.311 140.493 176.394 141.751 179.091C143.008 181.788 143.637 184.97 143.637 188.636C143.637 192.333 143.008 195.538 141.751 198.25C140.493 200.947 138.751 203.038 136.524 204.523C134.296 205.992 131.728 206.727 128.819 206.727C126.577 206.727 124.781 206.356 123.433 205.614C122.084 204.856 121.046 204 120.319 203.045C119.592 202.076 119.031 201.273 118.637 200.636H118.183V219.091H112.819ZM118.092 188.545C118.092 191.182 118.478 193.508 119.251 195.523C120.024 197.523 121.152 199.091 122.637 200.227C124.122 201.348 125.94 201.909 128.092 201.909C130.334 201.909 132.205 201.318 133.705 200.136C135.221 198.939 136.357 197.333 137.115 195.318C137.887 193.288 138.274 191.03 138.274 188.545C138.274 186.091 137.895 183.879 137.137 181.909C136.395 179.924 135.266 178.356 133.751 177.205C132.251 176.038 130.365 175.455 128.092 175.455C125.91 175.455 124.077 176.008 122.592 177.114C121.107 178.205 119.986 179.735 119.228 181.705C118.471 183.659 118.092 185.939 118.092 188.545ZM153.023 159.455V206H147.659V159.455H153.023ZM172.868 206.727C169.717 206.727 166.952 205.977 164.573 204.477C162.209 202.977 160.361 200.879 159.027 198.182C157.709 195.485 157.05 192.333 157.05 188.727C157.05 185.091 157.709 181.917 159.027 179.205C160.361 176.492 162.209 174.386 164.573 172.886C166.952 171.386 169.717 170.636 172.868 170.636C176.02 170.636 178.777 171.386 181.141 172.886C183.52 174.386 185.368 176.492 186.687 179.205C188.02 181.917 188.687 185.091 188.687 188.727C188.687 192.333 188.02 195.485 186.687 198.182C185.368 200.879 183.52 202.977 181.141 204.477C178.777 205.977 176.02 206.727 172.868 206.727ZM172.868 201.909C175.262 201.909 177.232 201.295 178.777 200.068C180.323 198.841 181.467 197.227 182.209 195.227C182.952 193.227 183.323 191.061 183.323 188.727C183.323 186.394 182.952 184.22 182.209 182.205C181.467 180.189 180.323 178.561 178.777 177.318C177.232 176.076 175.262 175.455 172.868 175.455C170.474 175.455 168.505 176.076 166.959 177.318C165.414 178.561 164.27 180.189 163.527 182.205C162.785 184.22 162.414 186.394 162.414 188.727C162.414 191.061 162.785 193.227 163.527 195.227C164.27 197.227 165.414 198.841 166.959 200.068C168.505 201.295 170.474 201.909 172.868 201.909ZM192.714 206V171.091H197.896V176.364H198.26C198.896 174.636 200.047 173.235 201.714 172.159C203.381 171.083 205.26 170.545 207.35 170.545C207.744 170.545 208.237 170.553 208.828 170.568C209.419 170.583 209.866 170.606 210.169 170.636V176.091C209.987 176.045 209.57 175.977 208.919 175.886C208.282 175.78 207.608 175.727 206.896 175.727C205.199 175.727 203.684 176.083 202.35 176.795C201.032 177.492 199.987 178.462 199.214 179.705C198.457 180.932 198.078 182.333 198.078 183.909V206H192.714ZM225.94 206.727C222.577 206.727 219.675 205.985 217.236 204.5C214.812 203 212.94 200.909 211.622 198.227C210.319 195.53 209.668 192.394 209.668 188.818C209.668 185.242 210.319 182.091 211.622 179.364C212.94 176.621 214.774 174.485 217.122 172.955C219.486 171.409 222.243 170.636 225.395 170.636C227.213 170.636 229.009 170.939 230.781 171.545C232.554 172.152 234.168 173.136 235.622 174.5C237.077 175.848 238.236 177.636 239.1 179.864C239.963 182.091 240.395 184.833 240.395 188.091V190.364H213.486V185.727H234.94C234.94 183.758 234.547 182 233.759 180.455C232.986 178.909 231.88 177.689 230.44 176.795C229.016 175.902 227.334 175.455 225.395 175.455C223.259 175.455 221.41 175.985 219.85 177.045C218.304 178.091 217.115 179.455 216.281 181.136C215.448 182.818 215.031 184.621 215.031 186.545V189.636C215.031 192.273 215.486 194.508 216.395 196.341C217.319 198.159 218.6 199.545 220.236 200.5C221.872 201.439 223.774 201.909 225.94 201.909C227.35 201.909 228.622 201.712 229.759 201.318C230.91 200.909 231.903 200.303 232.736 199.5C233.569 198.682 234.213 197.667 234.668 196.455L239.85 197.909C239.304 199.667 238.387 201.212 237.1 202.545C235.812 203.864 234.221 204.894 232.327 205.636C230.433 206.364 228.304 206.727 225.94 206.727Z" fill="white"/>
<circle cx="144" cy="144" r="141" stroke="white" stroke-width="6"/>
</svg>
