<svg width="674" height="243" viewBox="0 0 674 243" fill="none" xmlns="http://www.w3.org/2000/svg">
<path d="M2.23267 56.4698H2.7025V56V2.63617H9H9.46984V2.16633V1V0.530163H9H1H0.530163V1V56V56.4698H1H2.23267Z" fill="#26F2F6" stroke="#26F2F6" stroke-width="0.939674"/>
<path d="M9 61.4698H9.46984V61V59.7673V59.2975H9H2.7025V53V52.5302H2.23267H1H0.530163V53V61V61.4698H1H9Z" fill="#26F2F6" stroke="#26F2F6" stroke-width="0.939674"/>
<rect width="176" height="49" transform="translate(9 6.5)" fill="#26F2F6" fill-opacity="0.1"/>
<path d="M38.552 29.6C38.552 24.536 41.528 20.984 45.728 20.984C48.8 20.984 51.416 23.024 52.256 26.096L49.832 26.912C49.376 24.656 47.744 23.192 45.728 23.192C43.088 23.192 41.216 25.856 41.216 29.6C41.216 33.368 43.088 36.032 45.728 36.032C47.816 36.032 49.448 34.424 49.832 31.952L52.256 32.792C51.56 36.056 48.968 38.24 45.728 38.24C41.528 38.24 38.552 34.664 38.552 29.6ZM64.1506 31.88C64.1506 35.576 61.6066 38.192 58.0306 38.192C54.4546 38.192 51.9106 35.576 51.9106 31.88C51.9106 28.16 54.4546 25.568 58.0306 25.568C61.6066 25.568 64.1506 28.16 64.1506 31.88ZM54.4546 31.88C54.4546 34.472 55.8706 36.128 58.0306 36.128C60.2146 36.128 61.6306 34.472 61.6306 31.88C61.6306 29.312 60.2146 27.68 58.0306 27.68C55.8706 27.68 54.4546 29.312 54.4546 31.88ZM72.0853 29.672V38H69.8293V29.576C69.8293 28.232 69.3013 27.584 68.4613 27.584C67.4773 27.584 66.7813 28.448 66.7813 30.008V38H64.5733V28.808C64.5733 27.344 64.5253 26.576 64.4053 25.784H66.4933C66.5413 26.024 66.6613 26.576 66.6853 26.984C67.3333 26.096 68.2213 25.616 69.1573 25.616C70.2853 25.616 71.1973 26.216 71.6773 27.248C72.3733 26.12 73.2613 25.616 74.4373 25.616C76.1653 25.616 77.3653 26.888 77.3653 29.072V38H75.1333V29.576C75.1333 28.232 74.5813 27.584 73.7653 27.584C72.7813 27.584 72.0853 28.328 72.0853 29.672ZM84.9159 29.672V38H82.6599V29.576C82.6599 28.232 82.1319 27.584 81.2919 27.584C80.3079 27.584 79.6119 28.448 79.6119 30.008V38H77.4039V28.808C77.4039 27.344 77.3559 26.576 77.2359 25.784H79.3239C79.3719 26.024 79.4919 26.576 79.5159 26.984C80.1639 26.096 81.0519 25.616 81.9879 25.616C83.1159 25.616 84.0279 26.216 84.5079 27.248C85.2039 26.12 86.0919 25.616 87.2679 25.616C88.9959 25.616 90.1959 26.888 90.1959 29.072V38H87.9639V29.576C87.9639 28.232 87.4119 27.584 86.5959 27.584C85.6119 27.584 84.9159 28.328 84.9159 29.672ZM102.187 38H99.9065C99.7865 37.568 99.6185 36.968 99.5465 36.416C98.5385 37.472 97.1225 38.216 95.4425 38.216C92.6825 38.216 90.8345 36.392 90.8345 33.656V25.808H93.3545V33.44C93.3545 35.072 94.3865 36.104 95.9705 36.104C98.0585 36.104 99.4985 34.856 99.4985 32.888V25.808H102.019V34.448C102.019 36.248 102.043 37.064 102.187 38ZM103.713 25.808H105.969C106.089 26.24 106.257 26.84 106.329 27.392C107.337 26.336 108.777 25.592 110.457 25.592C113.217 25.592 115.065 27.392 115.065 30.128V38H112.521V30.368C112.521 28.712 111.489 27.68 109.929 27.68C107.841 27.68 106.401 28.952 106.401 30.92V38H103.881V29.36C103.881 27.56 103.833 26.744 103.713 25.808ZM117.144 27.776V25.808H123.456V36.032H127.2V38H117.144V36.032H120.936V27.776H117.144ZM120.84 20.984H123.6V23.768H120.84V20.984ZM132.734 33.848V27.728H129.782V26.072L132.734 25.808L133.406 22.616H135.23V25.808H139.406V27.776H135.23V33.776C135.23 35.072 135.614 36.2 137.918 36.2C138.494 36.2 139.286 36.152 140.15 35.984V38.072C139.238 38.192 138.494 38.24 137.75 38.24C134.03 38.24 132.734 36.128 132.734 33.848ZM146.477 38.672L146.765 37.952L141.557 25.808H144.125L147.965 35.096L151.805 25.808H154.325L148.733 39.104C147.917 41.024 146.957 43.136 143.813 43.136C143.213 43.136 142.445 43.064 141.773 42.872V40.76C142.685 41.048 143.213 41.096 143.669 41.096C145.397 41.096 145.997 39.848 146.477 38.672Z" fill="#26F2F6"/>
<path d="M193 58.4698H193.47V58V1V0.530163H193H185H184.53V1V2.1592V2.62904H185H191.299V58V58.4698H191.769H193Z" fill="#26F2F6" stroke="#26F2F6" stroke-width="0.939674"/>
<path d="M193 61.4698H193.47V61V53V52.5302H193H191.769H191.299V53V59.2975H185H184.53V59.7673V61V61.4698H185H193Z" fill="#26F2F6" stroke="#26F2F6" stroke-width="0.939674"/>
<path d="M263.233 120.47H263.703V120V66.6362H270H270.47V66.1663V65V64.5302H270H262H261.53V65V120V120.47H262H263.233Z" fill="#26F2F6" stroke="#26F2F6" stroke-width="0.939674"/>
<path d="M270 125.47H270.47V125V123.767V123.297H270H263.703V117V116.53H263.233H262H261.53V117V125V125.47H262H270Z" fill="#26F2F6" stroke="#26F2F6" stroke-width="0.939674"/>
<rect width="124" height="49" transform="translate(270 70.5)" fill="#26F2F6" fill-opacity="0.1"/>
<path d="M304.904 102V87.288H299.744V85.176H312.68V87.288H307.52V102H304.904ZM313.391 102V100.032H316.079V93.36C316.079 92.712 316.079 92.184 316.055 91.776H313.391V89.808H317.639C317.975 90.648 318.263 91.584 318.407 92.352C319.391 90.624 320.975 89.472 324.551 89.592L324.767 91.776C320.927 91.464 318.527 92.808 318.527 95.232V100.032H322.967V102H313.391ZM326.821 91.776V89.808H333.133V100.032H336.877V102H326.821V100.032H330.613V91.776H326.821ZM330.517 84.984H333.277V87.768H330.517V84.984ZM341.572 85.176V91.392C342.46 90.264 343.948 89.568 345.484 89.568C348.628 89.568 350.86 92.184 350.86 95.88C350.86 99.6 348.628 102.24 345.484 102.24C343.828 102.24 342.292 101.376 341.428 100.224C341.38 100.728 341.236 101.544 341.14 102H338.884C338.98 101.184 339.052 100.032 339.052 98.448V85.176H341.572ZM341.572 95.448V96.216C341.572 98.448 342.82 100.152 344.812 100.152C346.972 100.152 348.316 98.496 348.316 95.88C348.316 93.312 346.972 91.68 344.812 91.68C342.772 91.68 341.572 93.336 341.572 95.448ZM351.451 95.88C351.451 92.184 353.995 89.568 357.619 89.568C361.219 89.568 363.763 92.184 363.763 95.88V96.528H354.019C354.235 98.736 355.603 100.08 357.619 100.08C359.227 100.08 360.475 99.264 360.979 97.872L363.355 98.4C362.659 100.608 360.571 102.192 357.619 102.192C353.995 102.192 351.451 99.576 351.451 95.88ZM357.619 91.68C355.771 91.68 354.475 92.832 354.091 94.68H361.147C360.811 92.808 359.467 91.68 357.619 91.68Z" fill="#26F2F6"/>
<path d="M402 122.47H402.47V122V65V64.5302H402H394H393.53V65V66.1592V66.629H394H400.299V122V122.47H400.769H402Z" fill="#26F2F6" stroke="#26F2F6" stroke-width="0.939674"/>
<path d="M402 125.47H402.47V125V117V116.53H402H400.769H400.299V117V123.297H394H393.53V123.767V125V125.47H394H402Z" fill="#26F2F6" stroke="#26F2F6" stroke-width="0.939674"/>
<path d="M456.233 56.4698H456.703V56V2.63617H463H463.47V2.16633V1V0.530163H463H455H454.53V1V56V56.4698H455H456.233Z" fill="#26F2F6" stroke="#26F2F6" stroke-width="0.939674"/>
<path d="M463 61.4698H463.47V61V59.7673V59.2975H463H456.703V53V52.5302H456.233H455H454.53V53V61V61.4698H455H463Z" fill="#26F2F6" stroke="#26F2F6" stroke-width="0.939674"/>
<rect width="111" height="49" transform="translate(463 6.5)" fill="#26F2F6" fill-opacity="0.1"/>
<path d="M492.552 29.6C492.552 24.536 495.528 20.984 499.728 20.984C502.8 20.984 505.416 23.024 506.256 26.096L503.832 26.912C503.376 24.656 501.744 23.192 499.728 23.192C497.088 23.192 495.216 25.856 495.216 29.6C495.216 33.368 497.088 36.032 499.728 36.032C501.816 36.032 503.448 34.424 503.832 31.952L506.256 32.792C505.56 36.056 502.968 38.24 499.728 38.24C495.528 38.24 492.552 34.664 492.552 29.6ZM517.695 38H515.415C515.295 37.568 515.127 36.968 515.055 36.416C514.047 37.472 512.631 38.216 510.951 38.216C508.191 38.216 506.343 36.392 506.343 33.656V25.808H508.863V33.44C508.863 35.072 509.895 36.104 511.479 36.104C513.567 36.104 515.007 34.856 515.007 32.888V25.808H517.527V34.448C517.527 36.248 517.551 37.064 517.695 38ZM519.821 23.072V21.104H526.133V36.032H529.877V38H519.821V36.032H523.613V23.072H519.821ZM535.412 33.848V27.728H532.46V26.072L535.412 25.808L536.084 22.616H537.908V25.808H542.084V27.776H537.908V33.776C537.908 35.072 538.292 36.2 540.596 36.2C541.172 36.2 541.964 36.152 542.828 35.984V38.072C541.916 38.192 541.172 38.24 540.428 38.24C536.708 38.24 535.412 36.128 535.412 33.848Z" fill="#26F2F6"/>
<path d="M582 58.4698H582.47V58V1V0.530163H582H574H573.53V1V2.1592V2.62904H574H580.299V58V58.4698H580.769H582Z" fill="#26F2F6" stroke="#26F2F6" stroke-width="0.939674"/>
<path d="M582 61.4698H582.47V61V53V52.5302H582H580.769H580.299V53V59.2975H574H573.53V59.7673V61V61.4698H574H582Z" fill="#26F2F6" stroke="#26F2F6" stroke-width="0.939674"/>
<path d="M486.233 199.47H486.703V199V145.636H493H493.47V145.166V144V143.53H493H485H484.53V144V199V199.47H485H486.233Z" fill="#26F2F6" stroke="#26F2F6" stroke-width="0.939674"/>
<path d="M493 204.47H493.47V204V202.767V202.297H493H486.703V196V195.53H486.233H485H484.53V196V204V204.47H485H493Z" fill="#26F2F6" stroke="#26F2F6" stroke-width="0.939674"/>
<rect width="163" height="49" transform="translate(493 149.5)" fill="#26F2F6" fill-opacity="0.1"/>
<path d="M523.032 181V164.176H525.912L529.224 174.16L532.488 164.176H535.392V181H533.088V167.776L530.088 176.968H528.336L525.312 167.752V181H523.032ZM548.151 174.88C548.151 178.576 545.607 181.192 542.031 181.192C538.455 181.192 535.911 178.576 535.911 174.88C535.911 171.16 538.455 168.568 542.031 168.568C545.607 168.568 548.151 171.16 548.151 174.88ZM538.455 174.88C538.455 177.472 539.871 179.128 542.031 179.128C544.215 179.128 545.631 177.472 545.631 174.88C545.631 172.312 544.215 170.68 542.031 170.68C539.871 170.68 538.455 172.312 538.455 174.88ZM558.629 168.808H561.197L556.133 181H553.589L548.525 168.808H551.093L554.861 178.264L558.629 168.808ZM561.62 174.88C561.62 171.184 564.164 168.568 567.788 168.568C571.388 168.568 573.932 171.184 573.932 174.88V175.528H564.188C564.404 177.736 565.772 179.08 567.788 179.08C569.396 179.08 570.644 178.264 571.148 176.872L573.524 177.4C572.828 179.608 570.74 181.192 567.788 181.192C564.164 181.192 561.62 178.576 561.62 174.88ZM567.788 170.68C565.94 170.68 564.644 171.832 564.26 173.68H571.316C570.98 171.808 569.636 170.68 567.788 170.68ZM581.747 172.672V181H579.491V172.576C579.491 171.232 578.963 170.584 578.123 170.584C577.139 170.584 576.443 171.448 576.443 173.008V181H574.235V171.808C574.235 170.344 574.187 169.576 574.067 168.784H576.155C576.203 169.024 576.323 169.576 576.347 169.984C576.995 169.096 577.883 168.616 578.819 168.616C579.947 168.616 580.859 169.216 581.339 170.248C582.035 169.12 582.923 168.616 584.099 168.616C585.827 168.616 587.027 169.888 587.027 172.072V181H584.795V172.576C584.795 171.232 584.243 170.584 583.427 170.584C582.443 170.584 581.747 171.328 581.747 172.672ZM587.281 174.88C587.281 171.184 589.825 168.568 593.449 168.568C597.049 168.568 599.593 171.184 599.593 174.88V175.528H589.849C590.065 177.736 591.433 179.08 593.449 179.08C595.057 179.08 596.305 178.264 596.809 176.872L599.185 177.4C598.489 179.608 596.401 181.192 593.449 181.192C589.825 181.192 587.281 178.576 587.281 174.88ZM593.449 170.68C591.601 170.68 590.305 171.832 589.921 173.68H596.977C596.641 171.808 595.297 170.68 593.449 170.68ZM600.544 168.808H602.8C602.92 169.24 603.088 169.84 603.16 170.392C604.168 169.336 605.608 168.592 607.288 168.592C610.048 168.592 611.896 170.392 611.896 173.128V181H609.352V173.368C609.352 171.712 608.32 170.68 606.76 170.68C604.672 170.68 603.232 171.952 603.232 173.92V181H600.712V172.36C600.712 170.56 600.664 169.744 600.544 168.808ZM616.734 176.848V170.728H613.782V169.072L616.734 168.808L617.406 165.616H619.23V168.808H623.406V170.776H619.23V176.776C619.23 178.072 619.614 179.2 621.918 179.2C622.494 179.2 623.286 179.152 624.15 178.984V181.072C623.238 181.192 622.494 181.24 621.75 181.24C618.03 181.24 616.734 179.128 616.734 176.848Z" fill="#26F2F6"/>
<path d="M664 201.47H664.47V201V144V143.53H664H656H655.53V144V145.159V145.629H656H662.299V201V201.47H662.769H664Z" fill="#26F2F6" stroke="#26F2F6" stroke-width="0.939674"/>
<path d="M664 204.47H664.47V204V196V195.53H664H662.769H662.299V196V202.297H656H655.53V202.767V204V204.47H656H664Z" fill="#26F2F6" stroke="#26F2F6" stroke-width="0.939674"/>
<path d="M81.2327 237.47H81.7025V237V183.636H88H88.4698V183.166V182V181.53H88H80H79.5302V182V237V237.47H80H81.2327Z" fill="#26F2F6" stroke="#26F2F6" stroke-width="0.939674"/>
<path d="M88 242.47H88.4698V242V240.767V240.297H88H81.7025V234V233.53H81.2327H80H79.5302V234V242V242.47H80H88Z" fill="#26F2F6" stroke="#26F2F6" stroke-width="0.939674"/>
<rect width="163" height="49" transform="translate(88 187.5)" fill="#26F2F6" fill-opacity="0.1"/>
<path d="M128.424 219L124.224 212.376H121.128V219H118.512V202.176H125.04C131.232 202.176 131.88 210.312 127.008 212.064L131.376 219H128.424ZM121.128 210.216H124.92C128.64 210.216 128.64 204.312 124.92 204.312H121.128V210.216ZM130.959 212.88C130.959 209.184 133.503 206.568 137.127 206.568C140.727 206.568 143.271 209.184 143.271 212.88V213.528H133.527C133.743 215.736 135.111 217.08 137.127 217.08C138.735 217.08 139.983 216.264 140.487 214.872L142.863 215.4C142.167 217.608 140.079 219.192 137.127 219.192C133.503 219.192 130.959 216.576 130.959 212.88ZM137.127 208.68C135.279 208.68 133.983 209.832 133.599 211.68H140.655C140.319 209.808 138.975 208.68 137.127 208.68ZM144.821 204.072V202.104H151.133V217.032H154.877V219H144.821V217.032H148.613V204.072H144.821ZM157.652 208.776V206.808H163.964V217.032H167.708V219H157.652V217.032H161.444V208.776H157.652ZM161.348 201.984H164.108V204.768H161.348V201.984ZM178.667 218.784V217.368C177.779 218.472 176.291 219.192 174.731 219.192C171.587 219.192 169.379 216.576 169.379 212.904C169.379 209.208 171.587 206.592 174.731 206.592C176.387 206.592 177.947 207.408 178.787 208.584C178.859 207.96 178.979 207.312 179.099 206.808H181.355C181.235 207.624 181.187 208.752 181.187 210.336V218.784C181.187 222.144 179.051 224.256 175.499 224.256C172.571 224.256 170.363 222.84 169.667 220.632L172.091 220.104C172.619 221.424 173.795 222.168 175.475 222.168C177.539 222.168 178.667 220.896 178.667 218.784ZM171.899 212.904C171.899 215.448 173.243 217.08 175.403 217.08C177.467 217.08 178.667 215.424 178.667 213.312V212.544C178.667 210.336 177.395 208.632 175.403 208.632C173.243 208.632 171.899 210.288 171.899 212.904ZM183.313 208.776V206.808H189.625V217.032H193.369V219H183.313V217.032H187.105V208.776H183.313ZM187.009 201.984H189.769V204.768H187.009V201.984ZM207.304 212.88C207.304 216.576 204.76 219.192 201.184 219.192C197.608 219.192 195.064 216.576 195.064 212.88C195.064 209.16 197.608 206.568 201.184 206.568C204.76 206.568 207.304 209.16 207.304 212.88ZM197.608 212.88C197.608 215.472 199.024 217.128 201.184 217.128C203.368 217.128 204.784 215.472 204.784 212.88C204.784 210.312 203.368 208.68 201.184 208.68C199.024 208.68 197.608 210.312 197.608 212.88ZM208.374 206.808H210.63C210.75 207.24 210.918 207.84 210.99 208.392C211.998 207.336 213.438 206.592 215.118 206.592C217.878 206.592 219.726 208.392 219.726 211.128V219H217.182V211.368C217.182 209.712 216.15 208.68 214.59 208.68C212.502 208.68 211.062 209.952 211.062 211.92V219H208.542V210.36C208.542 208.56 208.494 207.744 208.374 206.808Z" fill="#26F2F6"/>
<path d="M259 239.47H259.47V239V182V181.53H259H251H250.53V182V183.159V183.629H251H257.299V239V239.47H257.769H259Z" fill="#26F2F6" stroke="#26F2F6" stroke-width="0.939674"/>
<path d="M259 242.47H259.47V242V234V233.53H259H257.769H257.299V234V240.297H251H250.53V240.767V242V242.47H251H259Z" fill="#26F2F6" stroke="#26F2F6" stroke-width="0.939674"/>
<path d="M197 32C229.405 32 229.595 96 262 96" stroke="#26F3F6" stroke-width="3.7587"/>
<circle cx="261.5" cy="95.5" r="5.62065" fill="white" stroke="#26F3F6" stroke-width="3.7587"/>
<circle cx="196.5" cy="31.5" r="5.62065" fill="white" stroke="#26F3F6" stroke-width="3.7587"/>
<path d="M403 96C429.548 96 427.452 32 454 32" stroke="#26F3F6" stroke-width="3.7587"/>
<circle cx="454.5" cy="31.5" r="5.62065" fill="white" stroke="#26F3F6" stroke-width="3.7587"/>
<circle cx="403.5" cy="95.5" r="5.62065" fill="white" stroke="#26F3F6" stroke-width="3.7587"/>
<path d="M584 32C678.477 32 678.477 175 666.59 175" stroke="#26F3F6" stroke-width="3.7587"/>
<circle cx="666.5" cy="174.5" r="5.62065" fill="white" stroke="#26F3F6" stroke-width="3.7587"/>
<circle cx="583.5" cy="31.5" r="5.62065" fill="white" stroke="#26F3F6" stroke-width="3.7587"/>
<path d="M262 213C358.05 213 388.95 175 485 175" stroke="#26F3F6" stroke-width="3.7587"/>
<circle cx="484.5" cy="174.5" r="5.62065" fill="white" stroke="#26F3F6" stroke-width="3.7587"/>
<circle cx="261.5" cy="212.5" r="5.62065" fill="white" stroke="#26F3F6" stroke-width="3.7587"/>
</svg>
