<svg width="674" height="243" viewBox="0 0 674 243" fill="none" xmlns="http://www.w3.org/2000/svg">
<g clip-path="url(#clip0_2493_2)">
<path d="M2.23278 56.4699H2.70261V56.0001V2.63628H9.00011H9.46995V2.16644V1.00011V0.530273H9.00011H1.00011H0.530273V1.00011V56.0001V56.4699H1.00011H2.23278Z" fill="#26F2F6" stroke="#26F2F6" stroke-width="0.939674"/>
<path d="M9.00011 61.4699H9.46995V61.0001V59.7674V59.2976H9.00011H2.70261V53.0001V52.5303H2.23278H1.00011H0.530273V53.0001V61.0001V61.4699H1.00011H9.00011Z" fill="#26F2F6" stroke="#26F2F6" stroke-width="0.939674"/>
<path d="M185 6.5H9V55.5H185V6.5Z" fill="#26F2F6" fill-opacity="0.1"/>
<path d="M38.5518 29.5999C38.5518 24.5359 41.5278 20.9839 45.7278 20.9839C48.7998 20.9839 51.4158 23.0239 52.2558 26.0959L49.8318 26.9119C49.3758 24.6559 47.7438 23.1919 45.7278 23.1919C43.0878 23.1919 41.2158 25.8559 41.2158 29.5999C41.2158 33.3679 43.0878 36.0319 45.7278 36.0319C47.8158 36.0319 49.4478 34.4239 49.8318 31.9519L52.2558 32.7919C51.5598 36.0559 48.9678 38.2399 45.7278 38.2399C41.5278 38.2399 38.5518 34.6639 38.5518 29.5999ZM64.1504 31.8799C64.1504 35.5759 61.6064 38.1919 58.0304 38.1919C54.4544 38.1919 51.9104 35.5759 51.9104 31.8799C51.9104 28.1599 54.4544 25.5679 58.0304 25.5679C61.6064 25.5679 64.1504 28.1599 64.1504 31.8799ZM54.4544 31.8799C54.4544 34.4719 55.8704 36.1279 58.0304 36.1279C60.2144 36.1279 61.6304 34.4719 61.6304 31.8799C61.6304 29.3119 60.2144 27.6799 58.0304 27.6799C55.8704 27.6799 54.4544 29.3119 54.4544 31.8799ZM72.0851 29.6719V37.9999H69.8291V29.5759C69.8291 28.2319 69.3011 27.5839 68.4611 27.5839C67.4771 27.5839 66.7811 28.4479 66.7811 30.0079V37.9999H64.5731V28.8079C64.5731 27.3439 64.5251 26.5759 64.4051 25.7839H66.4931C66.5411 26.0239 66.6611 26.5759 66.6851 26.9839C67.3331 26.0959 68.2211 25.6159 69.1571 25.6159C70.2851 25.6159 71.1971 26.2159 71.6771 27.2479C72.3731 26.1199 73.2611 25.6159 74.4371 25.6159C76.1651 25.6159 77.3651 26.8879 77.3651 29.0719V37.9999H75.1331V29.5759C75.1331 28.2319 74.5811 27.5839 73.7651 27.5839C72.7811 27.5839 72.0851 28.3279 72.0851 29.6719ZM84.9157 29.6719V37.9999H82.6597V29.5759C82.6597 28.2319 82.1317 27.5839 81.2917 27.5839C80.3077 27.5839 79.6117 28.4479 79.6117 30.0079V37.9999H77.4037V28.8079C77.4037 27.3439 77.3557 26.5759 77.2357 25.7839H79.3237C79.3717 26.0239 79.4917 26.5759 79.5157 26.9839C80.1637 26.0959 81.0517 25.6159 81.9877 25.6159C83.1157 25.6159 84.0277 26.2159 84.5077 27.2479C85.2037 26.1199 86.0917 25.6159 87.2677 25.6159C88.9957 25.6159 90.1957 26.8879 90.1957 29.0719V37.9999H87.9637V29.5759C87.9637 28.2319 87.4117 27.5839 86.5957 27.5839C85.6117 27.5839 84.9157 28.3279 84.9157 29.6719ZM102.187 37.9999H99.9063C99.7863 37.5679 99.6183 36.9679 99.5463 36.4159C98.5383 37.4719 97.1223 38.2159 95.4423 38.2159C92.6823 38.2159 90.8343 36.3919 90.8343 33.6559V25.8079H93.3543V33.4399C93.3543 35.0719 94.3863 36.1039 95.9703 36.1039C98.0583 36.1039 99.4983 34.8559 99.4983 32.8879V25.8079H102.019V34.4479C102.019 36.2479 102.043 37.0639 102.187 37.9999ZM103.713 25.8079H105.969C106.089 26.2399 106.257 26.8399 106.329 27.3919C107.337 26.3359 108.777 25.5919 110.457 25.5919C113.217 25.5919 115.065 27.3919 115.065 30.1279V37.9999H112.521V30.3679C112.521 28.7119 111.489 27.6799 109.929 27.6799C107.841 27.6799 106.401 28.9519 106.401 30.9199V37.9999H103.881V29.3599C103.881 27.5599 103.833 26.7439 103.713 25.8079ZM117.144 27.7759V25.8079H123.456V36.0319H127.2V37.9999H117.144V36.0319H120.936V27.7759H117.144ZM120.84 20.9839H123.6V23.7679H120.84V20.9839ZM132.734 33.8479V27.7279H129.782V26.0719L132.734 25.8079L133.406 22.6159H135.23V25.8079H139.406V27.7759H135.23V33.7759C135.23 35.0719 135.614 36.1999 137.918 36.1999C138.494 36.1999 139.286 36.1519 140.15 35.9839V38.0719C139.238 38.1919 138.494 38.2399 137.75 38.2399C134.03 38.2399 132.734 36.1279 132.734 33.8479ZM146.477 38.6719L146.765 37.9519L141.557 25.8079H144.125L147.965 35.0959L151.805 25.8079H154.325L148.733 39.1039C147.917 41.0239 146.957 43.1359 143.813 43.1359C143.213 43.1359 142.445 43.0639 141.773 42.8719V40.7599C142.685 41.0479 143.213 41.0959 143.669 41.0959C145.397 41.0959 145.997 39.8479 146.477 38.6719Z" fill="#26F2F6"/>
<path d="M193 58.4699H193.47V58.0001V1.00011V0.530273H193H185H184.53V1.00011V2.15931V2.62915H185H191.299V58.0001V58.4699H191.769H193Z" fill="#26F2F6" stroke="#26F2F6" stroke-width="0.939674"/>
<path d="M193 61.4699H193.47V61.0001V53.0001V52.5303H193H191.769H191.299V53.0001V59.2976H185H184.53V59.7674V61.0001V61.4699H185H193Z" fill="#26F2F6" stroke="#26F2F6" stroke-width="0.939674"/>
<path d="M263.233 120.47H263.703V120V66.6363H270H270.47V66.1664V65.0001V64.5303H270H262H261.53V65.0001V120V120.47H262H263.233Z" fill="#26F2F6" stroke="#26F2F6" stroke-width="0.939674"/>
<path d="M270 125.47H270.47V125V123.767V123.297H270H263.703V117V116.53H263.233H262H261.53V117V125V125.47H262H270Z" fill="#26F2F6" stroke="#26F2F6" stroke-width="0.939674"/>
<path d="M394 70.5H270V119.5H394V70.5Z" fill="#26F2F6" fill-opacity="0.1"/>
<path d="M304.904 102V87.2879H299.744V85.1759H312.68V87.2879H307.52V102H304.904ZM313.391 102V100.032H316.079V93.3599C316.079 92.7119 316.079 92.1839 316.055 91.7759H313.391V89.8079H317.639C317.975 90.6479 318.263 91.5839 318.407 92.3519C319.391 90.6239 320.975 89.4719 324.551 89.5919L324.767 91.7759C320.927 91.4639 318.527 92.8079 318.527 95.2319V100.032H322.967V102H313.391ZM326.821 91.7759V89.8079H333.133V100.032H336.877V102H326.821V100.032H330.613V91.7759H326.821ZM330.517 84.9839H333.277V87.7679H330.517V84.9839ZM341.572 85.1759V91.3919C342.46 90.2639 343.948 89.5679 345.484 89.5679C348.628 89.5679 350.86 92.1839 350.86 95.8799C350.86 99.5999 348.628 102.24 345.484 102.24C343.828 102.24 342.292 101.376 341.428 100.224C341.38 100.728 341.236 101.544 341.14 102H338.884C338.98 101.184 339.052 100.032 339.052 98.4479V85.1759H341.572ZM341.572 95.4479V96.2159C341.572 98.4479 342.82 100.152 344.812 100.152C346.972 100.152 348.316 98.4959 348.316 95.8799C348.316 93.3119 346.972 91.6799 344.812 91.6799C342.772 91.6799 341.572 93.3359 341.572 95.4479ZM351.451 95.8799C351.451 92.1839 353.995 89.5679 357.619 89.5679C361.219 89.5679 363.763 92.1839 363.763 95.8799V96.5279H354.019C354.235 98.7359 355.603 100.08 357.619 100.08C359.227 100.08 360.475 99.2639 360.979 97.8719L363.355 98.3999C362.659 100.608 360.571 102.192 357.619 102.192C353.995 102.192 351.451 99.5759 351.451 95.8799ZM357.619 91.6799C355.771 91.6799 354.475 92.8319 354.091 94.6799H361.147C360.811 92.8079 359.467 91.6799 357.619 91.6799Z" fill="#26F2F6"/>
<path d="M402 122.47H402.47V122V65.0001V64.5303H402H394H393.53V65.0001V66.1593V66.6291H394H400.299V122V122.47H400.769H402Z" fill="#26F2F6" stroke="#26F2F6" stroke-width="0.939674"/>
<path d="M402 125.47H402.47V125V117V116.53H402H400.769H400.299V117V123.297H394H393.53V123.767V125V125.47H394H402Z" fill="#26F2F6" stroke="#26F2F6" stroke-width="0.939674"/>
<path d="M456.233 56.4699H456.703V56.0001V2.63628H463H463.47V2.16644V1.00011V0.530273H463H455H454.53V1.00011V56.0001V56.4699H455H456.233Z" fill="#26F2F6" stroke="#26F2F6" stroke-width="0.939674"/>
<path d="M463 61.4699H463.47V61.0001V59.7674V59.2976H463H456.703V53.0001V52.5303H456.233H455H454.53V53.0001V61.0001V61.4699H455H463Z" fill="#26F2F6" stroke="#26F2F6" stroke-width="0.939674"/>
<path d="M574 6.5H463V55.5H574V6.5Z" fill="#26F2F6" fill-opacity="0.1"/>
<path d="M548 174.616C548 169.552 550.976 166 555.176 166C558.248 166 560.864 168.04 561.704 171.112L559.28 171.928C558.824 169.672 557.192 168.208 555.176 168.208C552.536 168.208 550.664 170.872 550.664 174.616C550.664 178.384 552.536 181.048 555.176 181.048C557.264 181.048 558.896 179.44 559.28 176.968L561.704 177.808C561.008 181.072 558.416 183.256 555.176 183.256C550.976 183.256 548 179.68 548 174.616ZM573.143 183.016H570.863C570.743 182.584 570.575 181.984 570.503 181.432C569.495 182.488 568.079 183.232 566.399 183.232C563.639 183.232 561.791 181.408 561.791 178.672V170.824H564.311V178.456C564.311 180.088 565.343 181.12 566.927 181.12C569.015 181.12 570.455 179.872 570.455 177.904V170.824H572.975V179.464C572.975 181.264 572.999 182.08 573.143 183.016ZM575.269 168.088V166.12H581.581V181.048H585.325V183.016H575.269V181.048H579.061V168.088H575.269ZM590.86 178.864V172.744H587.908V171.088L590.86 170.824L591.532 167.632H593.356V170.824H597.532V172.792H593.356V178.792C593.356 180.088 593.74 181.216 596.044 181.216C596.62 181.216 597.412 181.168 598.276 181V183.088C597.364 183.208 596.62 183.256 595.876 183.256C592.156 183.256 590.86 181.144 590.86 178.864Z" fill="#26F2F6"/>
<path d="M582 58.4699H582.47V58.0001V1.00011V0.530273H582H574H573.53V1.00011V2.15931V2.62915H574H580.299V58.0001V58.4699H580.769H582Z" fill="#26F2F6" stroke="#26F2F6" stroke-width="0.939674"/>
<path d="M582 61.4699H582.47V61.0001V53.0001V52.5303H582H580.769H580.299V53.0001V59.2976H574H573.53V59.7674V61.0001V61.4699H574H582Z" fill="#26F2F6" stroke="#26F2F6" stroke-width="0.939674"/>
<path d="M486.233 199.47H486.703V199V145.636H493H493.47V145.166V144V143.53H493H485H484.53V144V199V199.47H485H486.233Z" fill="#26F2F6" stroke="#26F2F6" stroke-width="0.939674"/>
<path d="M493 204.47H493.47V204V202.767V202.297H493H486.703V196V195.53H486.233H485H484.53V196V204V204.47H485H493Z" fill="#26F2F6" stroke="#26F2F6" stroke-width="0.939674"/>
<path d="M656 149.5H493V198.5H656V149.5Z" fill="#26F2F6" fill-opacity="0.1"/>
<path d="M477 39.8031V26H479.392L482.144 34.1913L484.855 26H487.268V39.8031H485.354V28.9536L482.862 36.4951H481.406L478.894 28.9339V39.8031H477ZM497.867 34.782C497.867 37.8143 495.753 39.9606 492.783 39.9606C489.812 39.9606 487.699 37.8143 487.699 34.782C487.699 31.73 489.812 29.6034 492.783 29.6034C495.753 29.6034 497.867 31.73 497.867 34.782ZM489.812 34.782C489.812 36.9086 490.988 38.2672 492.783 38.2672C494.597 38.2672 495.773 36.9086 495.773 34.782C495.773 32.6751 494.597 31.3361 492.783 31.3361C490.988 31.3361 489.812 32.6751 489.812 34.782ZM506.571 29.8003H508.704L504.497 39.8031H502.384L498.177 29.8003H500.311L503.441 37.5584L506.571 29.8003ZM509.056 34.782C509.056 31.7497 511.169 29.6034 514.179 29.6034C517.17 29.6034 519.283 31.7497 519.283 34.782V35.3136H511.189C511.368 37.1252 512.505 38.2278 514.179 38.2278C515.515 38.2278 516.552 37.5584 516.971 36.4163L518.944 36.8495C518.366 38.661 516.632 39.9606 514.179 39.9606C511.169 39.9606 509.056 37.8143 509.056 34.782ZM514.179 31.3361C512.644 31.3361 511.568 32.2813 511.249 33.7975H517.11C516.831 32.2616 515.715 31.3361 514.179 31.3361ZM525.775 32.9705V39.8031H523.901V32.8917C523.901 31.789 523.463 31.2574 522.765 31.2574C521.947 31.2574 521.369 31.9662 521.369 33.2461V39.8031H519.535V32.2616C519.535 31.0605 519.495 30.4304 519.395 29.7806H521.13C521.17 29.9775 521.269 30.4304 521.289 30.7651C521.828 30.0366 522.565 29.6428 523.343 29.6428C524.28 29.6428 525.038 30.135 525.436 30.9817C526.015 30.0563 526.752 29.6428 527.729 29.6428C529.165 29.6428 530.161 30.6864 530.161 32.4782V39.8031H528.307V32.8917C528.307 31.789 527.849 31.2574 527.171 31.2574C526.353 31.2574 525.775 31.8678 525.775 32.9705ZM530.372 34.782C530.372 31.7497 532.486 29.6034 535.496 29.6034C538.487 29.6034 540.6 31.7497 540.6 34.782V35.3136H532.506C532.685 37.1252 533.822 38.2278 535.496 38.2278C536.832 38.2278 537.869 37.5584 538.287 36.4163L540.261 36.8495C539.683 38.661 537.949 39.9606 535.496 39.9606C532.486 39.9606 530.372 37.8143 530.372 34.782ZM535.496 31.3361C533.961 31.3361 532.885 32.2813 532.566 33.7975H538.427C538.148 32.2616 537.031 31.3361 535.496 31.3361ZM541.39 29.8003H543.264C543.364 30.1547 543.503 30.647 543.563 31.0999C544.401 30.2335 545.597 29.6231 546.993 29.6231C549.285 29.6231 550.82 31.0999 550.82 33.3446V39.8031H548.707V33.5415C548.707 32.1828 547.85 31.3361 546.554 31.3361C544.819 31.3361 543.623 32.3797 543.623 33.9944V39.8031H541.53V32.7145C541.53 31.2377 541.49 30.5682 541.39 29.8003ZM554.839 36.3966V31.3755H552.387V30.0169L554.839 29.8003L555.398 27.1814H556.913V29.8003H560.382V31.4149H556.913V36.3376C556.913 37.4008 557.232 38.3263 559.146 38.3263C559.624 38.3263 560.282 38.2869 561 38.1491V39.8622C560.242 39.9606 559.624 40 559.006 40C555.916 40 554.839 38.2672 554.839 36.3966Z" fill="#26F2F6"/>
<path d="M664 201.47H664.47V201V144V143.53H664H656H655.53V144V145.159V145.629H656H662.299V201V201.47H662.769H664Z" fill="#26F2F6" stroke="#26F2F6" stroke-width="0.939674"/>
<path d="M664 204.47H664.47V204V196V195.53H664H662.769H662.299V196V202.297H656H655.53V202.767V204V204.47H656H664Z" fill="#26F2F6" stroke="#26F2F6" stroke-width="0.939674"/>
<path d="M81.2328 237.47H81.7026V237V183.636H88.0001H88.4699V183.166V182V181.53H88.0001H80.0001H79.5303V182V237V237.47H80.0001H81.2328Z" fill="#26F2F6" stroke="#26F2F6" stroke-width="0.939674"/>
<path d="M88.0001 242.47H88.4699V242V240.767V240.297H88.0001H81.7026V234V233.53H81.2328H80.0001H79.5303V234V242V242.47H80.0001H88.0001Z" fill="#26F2F6" stroke="#26F2F6" stroke-width="0.939674"/>
<path d="M251 187.5H88V236.5H251V187.5Z" fill="#26F2F6" fill-opacity="0.1"/>
<path d="M128.424 219L124.224 212.376H121.128V219H118.512V202.176H125.04C131.232 202.176 131.88 210.312 127.008 212.064L131.376 219H128.424ZM121.128 210.216H124.92C128.64 210.216 128.64 204.312 124.92 204.312H121.128V210.216ZM130.959 212.88C130.959 209.184 133.503 206.568 137.127 206.568C140.727 206.568 143.271 209.184 143.271 212.88V213.528H133.527C133.743 215.736 135.111 217.08 137.127 217.08C138.735 217.08 139.983 216.264 140.487 214.872L142.863 215.4C142.167 217.608 140.079 219.192 137.127 219.192C133.503 219.192 130.959 216.576 130.959 212.88ZM137.127 208.68C135.279 208.68 133.983 209.832 133.599 211.68H140.655C140.319 209.808 138.975 208.68 137.127 208.68ZM144.821 204.072V202.104H151.133V217.032H154.877V219H144.821V217.032H148.613V204.072H144.821ZM157.652 208.776V206.808H163.964V217.032H167.708V219H157.652V217.032H161.444V208.776H157.652ZM161.348 201.984H164.108V204.768H161.348V201.984ZM178.667 218.784V217.368C177.779 218.472 176.291 219.192 174.731 219.192C171.587 219.192 169.379 216.576 169.379 212.904C169.379 209.208 171.587 206.592 174.731 206.592C176.387 206.592 177.947 207.408 178.787 208.584C178.859 207.96 178.979 207.312 179.099 206.808H181.355C181.235 207.624 181.187 208.752 181.187 210.336V218.784C181.187 222.144 179.051 224.256 175.499 224.256C172.571 224.256 170.363 222.84 169.667 220.632L172.091 220.104C172.619 221.424 173.795 222.168 175.475 222.168C177.539 222.168 178.667 220.896 178.667 218.784ZM171.899 212.904C171.899 215.448 173.243 217.08 175.403 217.08C177.467 217.08 178.667 215.424 178.667 213.312V212.544C178.667 210.336 177.395 208.632 175.403 208.632C173.243 208.632 171.899 210.288 171.899 212.904ZM183.313 208.776V206.808H189.625V217.032H193.369V219H183.313V217.032H187.105V208.776H183.313ZM187.009 201.984H189.769V204.768H187.009V201.984ZM207.304 212.88C207.304 216.576 204.76 219.192 201.184 219.192C197.608 219.192 195.064 216.576 195.064 212.88C195.064 209.16 197.608 206.568 201.184 206.568C204.76 206.568 207.304 209.16 207.304 212.88ZM197.608 212.88C197.608 215.472 199.024 217.128 201.184 217.128C203.368 217.128 204.784 215.472 204.784 212.88C204.784 210.312 203.368 208.68 201.184 208.68C199.024 208.68 197.608 210.312 197.608 212.88ZM208.374 206.808H210.63C210.75 207.24 210.918 207.84 210.99 208.392C211.998 207.336 213.438 206.592 215.118 206.592C217.878 206.592 219.726 208.392 219.726 211.128V219H217.182V211.368C217.182 209.712 216.15 208.68 214.59 208.68C212.502 208.68 211.062 209.952 211.062 211.92V219H208.542V210.36C208.542 208.56 208.494 207.744 208.374 206.808Z" fill="#26F2F6"/>
<path d="M259 239.47H259.47V239V182V181.53H259H251H250.53V182V183.159V183.629H251H257.299V239V239.47H257.769H259Z" fill="#26F2F6" stroke="#26F2F6" stroke-width="0.939674"/>
<path d="M259 242.47H259.47V242V234V233.53H259H257.769H257.299V234V240.297H251H250.53V240.767V242V242.47H251H259Z" fill="#26F2F6" stroke="#26F2F6" stroke-width="0.939674"/>
<path d="M197 32C229.405 32 229.595 96 262 96" stroke="#26F3F6" stroke-width="3.7587"/>
<path d="M261.5 101.121C264.604 101.121 267.12 98.6042 267.12 95.5C267.12 92.3958 264.604 89.8794 261.5 89.8794C258.395 89.8794 255.879 92.3958 255.879 95.5C255.879 98.6042 258.395 101.121 261.5 101.121Z" fill="white" stroke="#26F3F6" stroke-width="3.7587"/>
<path d="M196.5 37.1207C199.604 37.1207 202.12 34.6042 202.12 31.5C202.12 28.3958 199.604 25.8794 196.5 25.8794C193.395 25.8794 190.879 28.3958 190.879 31.5C190.879 34.6042 193.395 37.1207 196.5 37.1207Z" fill="white" stroke="#26F3F6" stroke-width="3.7587"/>
<path d="M403 96C429.548 96 427.452 32 454 32" stroke="#26F3F6" stroke-width="3.7587"/>
<path d="M454.5 37.1207C457.604 37.1207 460.12 34.6042 460.12 31.5C460.12 28.3958 457.604 25.8794 454.5 25.8794C451.395 25.8794 448.879 28.3958 448.879 31.5C448.879 34.6042 451.395 37.1207 454.5 37.1207Z" fill="white" stroke="#26F3F6" stroke-width="3.7587"/>
<path d="M403.5 101.121C406.604 101.121 409.12 98.6042 409.12 95.5C409.12 92.3958 406.604 89.8794 403.5 89.8794C400.395 89.8794 397.879 92.3958 397.879 95.5C397.879 98.6042 400.395 101.121 403.5 101.121Z" fill="white" stroke="#26F3F6" stroke-width="3.7587"/>
<path d="M584 32C678.477 32 678.477 175 666.59 175" stroke="#26F3F6" stroke-width="3.7587"/>
<path d="M666.5 180.121C669.604 180.121 672.12 177.604 672.12 174.5C672.12 171.396 669.604 168.879 666.5 168.879C663.395 168.879 660.879 171.396 660.879 174.5C660.879 177.604 663.395 180.121 666.5 180.121Z" fill="white" stroke="#26F3F6" stroke-width="3.7587"/>
<path d="M583.5 37.1207C586.604 37.1207 589.12 34.6042 589.12 31.5C589.12 28.3958 586.604 25.8794 583.5 25.8794C580.395 25.8794 577.879 28.3958 577.879 31.5C577.879 34.6042 580.395 37.1207 583.5 37.1207Z" fill="white" stroke="#26F3F6" stroke-width="3.7587"/>
<path d="M262 213C358.05 213 388.95 175 485 175" stroke="#26F3F6" stroke-width="3.7587"/>
<path d="M484.5 180.121C487.604 180.121 490.12 177.604 490.12 174.5C490.12 171.396 487.604 168.879 484.5 168.879C481.395 168.879 478.879 171.396 478.879 174.5C478.879 177.604 481.395 180.121 484.5 180.121Z" fill="white" stroke="#26F3F6" stroke-width="3.7587"/>
<path d="M261.5 218.121C264.604 218.121 267.12 215.604 267.12 212.5C267.12 209.396 264.604 206.879 261.5 206.879C258.395 206.879 255.879 209.396 255.879 212.5C255.879 215.604 258.395 218.121 261.5 218.121Z" fill="white" stroke="#26F3F6" stroke-width="3.7587"/>
</g>
<defs>
<clipPath id="clip0_2493_2">
<rect width="674" height="243" fill="white"/>
</clipPath>
</defs>
</svg>
